# xmcd
#
# Track frame offsets: 
#        150
#        18092
#        42215
#        61820
#        85095
#        97495
#        115607
#        130765
#        143612
#        158307
#        174040
#
# Disc length: 2621 seconds
#
# Revision: 0
# Processed by: cddbd v1.5.2PL0 Copyright (c) Steve Scherf et al.
# Submitted via: ExactAudioCopy v0.95b4
#
DISCID=760a3b0b
DTITLE=Jeff Spence - Rockin' Louisiana Man
DYEAR=1993
DGENRE=Blues
TTITLE0=Rockin' Louisiana Man
TTITLE1=Idaho Potato
TTITLE2=Delta Queen
TTITLE3=Freddie's Kitchen Blues
TTITLE4=Turn Me On
TTITLE5=I'm A King Bee
TTITLE6=What Happened To Our Holiday?
TTITLE7=Catfish
TTITLE8=Good Woman Gone Bad
TTITLE9=Way Out In The Country
TTITLE10=Louisiana Showdown
EXTD=
EXTT0=
EXTT1=
EXTT2=
EXTT3=
EXTT4=
EXTT5=
EXTT6=
EXTT7=
EXTT8=
EXTT9=
EXTT10=
PLAYORDER=
